<svg xmlns="http://www.w3.org/2000/svg" viewBox="0 0 280 64" role="img" aria-label="HanMatching">
  <defs>
    <linearGradient id="logoBg" x1="0" y1="0" x2="0" y2="1">
      <stop offset="0%" stop-color="#fb7185"/>
      <stop offset="100%" stop-color="#e11d48"/>
    </linearGradient>
  </defs>

  <!-- Icon -->
  <rect width="64" height="64" rx="14" fill="url(#logoBg)"/>
  <path d="M32 52 C 32 52, 8 37, 8 22 C 8 15, 14 10, 21 10 C 25 10, 29 13, 32 17 C 35 13, 39 10, 43 10 C 50 10, 56 15, 56 22 C 56 37, 32 52, 32 52 Z" fill="white"/>
  <g fill="url(#logoBg)">
    <rect x="20" y="20" width="4" height="18" rx="2"/>
    <rect x="40" y="20" width="4" height="18" rx="2"/>
    <rect x="22" y="27" width="20" height="4" rx="2"/>
  </g>

  <!-- Wordmark -->
  <text x="80" y="34" font-family="-apple-system, BlinkMacSystemFont, 'Inter', 'Segoe UI', Roboto, sans-serif" font-weight="800" font-size="24" fill="#0f172a" letter-spacing="-0.5">Han<tspan fill="#e11d48">Matching</tspan></text>
  <text x="80" y="52" font-family="-apple-system, BlinkMacSystemFont, 'Inter', 'Segoe UI', Roboto, sans-serif" font-weight="500" font-size="11" fill="#64748b" letter-spacing="3">한국 · ລາວ</text>
</svg>
